<mxfile host="app.diagrams.net" agent="Mozilla/5.0 (Windows NT 10.0; Win64; x64) AppleWebKit/537.36 (KHTML, like Gecko) Chrome/137.0.0.0 Safari/537.36" version="27.2.0" pages="3">
  <diagram name="Arquitetura" id="JeoCaA9r-80h3PxNQSR9">
    <mxGraphModel dx="2583" dy="883" grid="0" gridSize="10" guides="1" tooltips="1" connect="1" arrows="1" fold="1" page="1" pageScale="1" pageWidth="850" pageHeight="1100" math="0" shadow="0">
      <root>
        <mxCell id="0" />
        <mxCell id="1" parent="0" />
        <mxCell id="J8NRH3EUTXx32A2fYxPT-2" value="" style="group" vertex="1" connectable="0" parent="1">
          <mxGeometry x="-755" y="48" width="745" height="628" as="geometry" />
        </mxCell>
        <mxCell id="yAPPyot4FVgLAs6YF_So-1" value="" style="ellipse;shape=cloud;whiteSpace=wrap;html=1;fillColor=#dae8fc;gradientColor=#7ea6e0;strokeColor=#6c8ebf;" parent="J8NRH3EUTXx32A2fYxPT-2" vertex="1">
          <mxGeometry width="397" height="271" as="geometry" />
        </mxCell>
        <mxCell id="15ZaVF8WQiYhcf3nM35N-5" value="" style="rounded=1;whiteSpace=wrap;html=1;fillColor=#d5e8d4;strokeColor=#82b366;" parent="J8NRH3EUTXx32A2fYxPT-2" vertex="1">
          <mxGeometry x="235" y="258" width="170" height="90" as="geometry" />
        </mxCell>
        <mxCell id="15ZaVF8WQiYhcf3nM35N-6" value="&lt;b&gt;API&lt;/b&gt;" style="text;html=1;align=center;verticalAlign=middle;whiteSpace=wrap;rounded=0;" parent="J8NRH3EUTXx32A2fYxPT-2" vertex="1">
          <mxGeometry x="235" y="258" width="160" height="40" as="geometry" />
        </mxCell>
        <mxCell id="15ZaVF8WQiYhcf3nM35N-7" value="&lt;ul&gt;&lt;li&gt;Resources (endpoints)&lt;/li&gt;&lt;/ul&gt;" style="text;html=1;align=center;verticalAlign=middle;whiteSpace=wrap;rounded=0;" parent="J8NRH3EUTXx32A2fYxPT-2" vertex="1">
          <mxGeometry x="215" y="288" width="190" height="50" as="geometry" />
        </mxCell>
        <mxCell id="15ZaVF8WQiYhcf3nM35N-10" value="&lt;b&gt;BD&lt;/b&gt;&lt;div&gt;&lt;ul&gt;&lt;li&gt;Models&lt;/li&gt;&lt;/ul&gt;&lt;/div&gt;" style="shape=cylinder3;whiteSpace=wrap;html=1;boundedLbl=1;backgroundOutline=1;size=15;fillColor=#dae8fc;strokeColor=#6c8ebf;" parent="J8NRH3EUTXx32A2fYxPT-2" vertex="1">
          <mxGeometry x="545" y="118" width="130" height="110" as="geometry" />
        </mxCell>
        <mxCell id="15ZaVF8WQiYhcf3nM35N-11" value="Estudante&lt;div&gt;Professor&lt;/div&gt;&lt;div&gt;Notas&lt;/div&gt;&lt;div&gt;Classe&lt;/div&gt;&lt;div&gt;Despesas&lt;/div&gt;&lt;div&gt;Mensalidade&lt;/div&gt;&lt;div&gt;&lt;br&gt;&lt;/div&gt;" style="rounded=0;whiteSpace=wrap;html=1;" parent="J8NRH3EUTXx32A2fYxPT-2" vertex="1">
          <mxGeometry x="345" y="328" width="120" height="170" as="geometry" />
        </mxCell>
        <mxCell id="15ZaVF8WQiYhcf3nM35N-12" value="Estudante&lt;div&gt;Professor&lt;/div&gt;&lt;div&gt;Notas&lt;/div&gt;&lt;div&gt;Classe&lt;/div&gt;&lt;div&gt;Despesas&lt;/div&gt;&lt;div&gt;Mensalidade&lt;/div&gt;&lt;div&gt;&lt;br&gt;&lt;/div&gt;" style="rounded=0;whiteSpace=wrap;html=1;" parent="J8NRH3EUTXx32A2fYxPT-2" vertex="1">
          <mxGeometry x="625" y="208" width="120" height="170" as="geometry" />
        </mxCell>
        <mxCell id="15ZaVF8WQiYhcf3nM35N-14" value="" style="endArrow=classic;startArrow=classic;html=1;rounded=0;exitX=1.016;exitY=0.14;exitDx=0;exitDy=0;exitPerimeter=0;" parent="J8NRH3EUTXx32A2fYxPT-2" source="15ZaVF8WQiYhcf3nM35N-7" target="15ZaVF8WQiYhcf3nM35N-10" edge="1">
          <mxGeometry width="50" height="50" relative="1" as="geometry">
            <mxPoint x="425" y="268" as="sourcePoint" />
            <mxPoint x="475" y="218" as="targetPoint" />
          </mxGeometry>
        </mxCell>
        <mxCell id="15ZaVF8WQiYhcf3nM35N-15" value="Frontend" style="swimlane;fontStyle=0;childLayout=stackLayout;horizontal=1;startSize=30;horizontalStack=0;resizeParent=1;resizeParentMax=0;resizeLast=0;collapsible=1;marginBottom=0;whiteSpace=wrap;html=1;fillColor=#ffe6cc;strokeColor=#d79b00;" parent="J8NRH3EUTXx32A2fYxPT-2" vertex="1">
          <mxGeometry x="245" y="568" width="140" height="60" as="geometry" />
        </mxCell>
        <mxCell id="15ZaVF8WQiYhcf3nM35N-19" value="" style="endArrow=classic;startArrow=classic;html=1;rounded=0;entryX=0.5;entryY=1;entryDx=0;entryDy=0;" parent="J8NRH3EUTXx32A2fYxPT-2" edge="1">
          <mxGeometry width="50" height="50" relative="1" as="geometry">
            <mxPoint x="313" y="558" as="sourcePoint" />
            <mxPoint x="312.5" y="348" as="targetPoint" />
          </mxGeometry>
        </mxCell>
        <mxCell id="gz6D6Tr_AKdB_GHaAVRU-2" value="GET&lt;div&gt;POST&lt;/div&gt;&lt;div&gt;PUT&lt;/div&gt;&lt;div&gt;DELETE&lt;/div&gt;" style="whiteSpace=wrap;html=1;aspect=fixed;" parent="J8NRH3EUTXx32A2fYxPT-2" vertex="1">
          <mxGeometry x="425" y="458" width="80" height="80" as="geometry" />
        </mxCell>
        <mxCell id="S4lwW4Yn-llcYx4S-sCL-1" value="&lt;div&gt;&lt;b&gt;AWS&lt;/b&gt;&lt;/div&gt;&lt;div&gt;&lt;b&gt;Cognito&lt;/b&gt;&lt;/div&gt;Users&lt;div&gt;&lt;br&gt;&lt;/div&gt;" style="whiteSpace=wrap;html=1;aspect=fixed;" parent="J8NRH3EUTXx32A2fYxPT-2" vertex="1">
          <mxGeometry x="125" y="38" width="80" height="80" as="geometry" />
        </mxCell>
        <mxCell id="S4lwW4Yn-llcYx4S-sCL-2" value="Admin&lt;div&gt;Professor&lt;/div&gt;&lt;div&gt;Diretor&lt;/div&gt;&lt;div&gt;Aluno&lt;/div&gt;" style="whiteSpace=wrap;html=1;aspect=fixed;" parent="J8NRH3EUTXx32A2fYxPT-2" vertex="1">
          <mxGeometry x="178" y="93" width="130" height="130" as="geometry" />
        </mxCell>
        <mxCell id="yAPPyot4FVgLAs6YF_So-2" value="Actor" style="shape=umlActor;verticalLabelPosition=bottom;verticalAlign=top;html=1;outlineConnect=0;" parent="J8NRH3EUTXx32A2fYxPT-2" vertex="1">
          <mxGeometry x="42" y="283" width="30" height="60" as="geometry" />
        </mxCell>
        <mxCell id="yAPPyot4FVgLAs6YF_So-4" value="" style="endArrow=classic;html=1;rounded=0;" parent="J8NRH3EUTXx32A2fYxPT-2" edge="1">
          <mxGeometry width="50" height="50" relative="1" as="geometry">
            <mxPoint x="78" y="286" as="sourcePoint" />
            <mxPoint x="128" y="236" as="targetPoint" />
          </mxGeometry>
        </mxCell>
        <mxCell id="yAPPyot4FVgLAs6YF_So-6" value="" style="endArrow=classic;html=1;rounded=0;entryX=0.575;entryY=-0.1;entryDx=0;entryDy=0;entryPerimeter=0;" parent="J8NRH3EUTXx32A2fYxPT-2" target="15ZaVF8WQiYhcf3nM35N-6" edge="1">
          <mxGeometry width="50" height="50" relative="1" as="geometry">
            <mxPoint x="310.0007379567386" y="225.00156132223754" as="sourcePoint" />
            <mxPoint x="376.5418412435864" y="249" as="targetPoint" />
          </mxGeometry>
        </mxCell>
      </root>
    </mxGraphModel>
  </diagram>
  <diagram id="_6yVRjhDnoGc5YC_l_P2" name="Tecnologia">
    <mxGraphModel dx="1906" dy="971" grid="0" gridSize="10" guides="1" tooltips="1" connect="1" arrows="1" fold="1" page="1" pageScale="1" pageWidth="850" pageHeight="1100" math="0" shadow="0">
      <root>
        <mxCell id="0" />
        <mxCell id="1" parent="0" />
        <mxCell id="d1g-8U-fYo1eyLPwnb_f-15" value="" style="rounded=0;whiteSpace=wrap;html=1;" parent="1" vertex="1">
          <mxGeometry x="40" y="30" width="770" height="330" as="geometry" />
        </mxCell>
        <mxCell id="yY2VOzWgCkhuwnx7pPcz-1" value="BD&amp;nbsp;" style="shape=cube;whiteSpace=wrap;html=1;boundedLbl=1;backgroundOutline=1;darkOpacity=0.05;darkOpacity2=0.1;fillColor=#dae8fc;strokeColor=#6c8ebf;" parent="1" vertex="1">
          <mxGeometry x="190" y="70" width="120" height="80" as="geometry" />
        </mxCell>
        <mxCell id="yY2VOzWgCkhuwnx7pPcz-2" value="Adminer" style="shape=cube;whiteSpace=wrap;html=1;boundedLbl=1;backgroundOutline=1;darkOpacity=0.05;darkOpacity2=0.1;fillColor=#f8cecc;strokeColor=#b85450;" parent="1" vertex="1">
          <mxGeometry x="490" y="70" width="120" height="80" as="geometry" />
        </mxCell>
        <mxCell id="yY2VOzWgCkhuwnx7pPcz-3" value="Frontend" style="shape=cube;whiteSpace=wrap;html=1;boundedLbl=1;backgroundOutline=1;darkOpacity=0.05;darkOpacity2=0.1;fillColor=#fff2cc;strokeColor=#d6b656;" parent="1" vertex="1">
          <mxGeometry x="340" y="70" width="120" height="80" as="geometry" />
        </mxCell>
        <mxCell id="yY2VOzWgCkhuwnx7pPcz-4" value="Timescale" style="shape=cube;whiteSpace=wrap;html=1;boundedLbl=1;backgroundOutline=1;darkOpacity=0.05;darkOpacity2=0.1;fillColor=#ffe6cc;strokeColor=#d79b00;" parent="1" vertex="1">
          <mxGeometry x="650" y="70" width="120" height="80" as="geometry" />
        </mxCell>
        <mxCell id="yY2VOzWgCkhuwnx7pPcz-6" value="API" style="shape=cube;whiteSpace=wrap;html=1;boundedLbl=1;backgroundOutline=1;darkOpacity=0.05;darkOpacity2=0.1;fillColor=#d5e8d4;strokeColor=#82b366;" parent="1" vertex="1">
          <mxGeometry x="50" y="70" width="120" height="80" as="geometry" />
        </mxCell>
        <mxCell id="d1g-8U-fYo1eyLPwnb_f-1" value="Python" style="rounded=1;whiteSpace=wrap;html=1;" parent="1" vertex="1">
          <mxGeometry x="100" y="140" width="100" height="30" as="geometry" />
        </mxCell>
        <mxCell id="d1g-8U-fYo1eyLPwnb_f-2" value="Postgres" style="rounded=1;whiteSpace=wrap;html=1;" parent="1" vertex="1">
          <mxGeometry x="240" y="140" width="100" height="30" as="geometry" />
        </mxCell>
        <mxCell id="d1g-8U-fYo1eyLPwnb_f-3" value="?" style="rounded=1;whiteSpace=wrap;html=1;" parent="1" vertex="1">
          <mxGeometry x="400" y="140" width="100" height="30" as="geometry" />
        </mxCell>
        <mxCell id="d1g-8U-fYo1eyLPwnb_f-4" value="Dockerfile" style="whiteSpace=wrap;html=1;aspect=fixed;fillColor=#b0e3e6;strokeColor=#0e8088;" parent="1" vertex="1">
          <mxGeometry x="80" y="230" width="80" height="80" as="geometry" />
        </mxCell>
        <mxCell id="d1g-8U-fYo1eyLPwnb_f-5" value="Dockerfile" style="whiteSpace=wrap;html=1;aspect=fixed;fillColor=#b0e3e6;strokeColor=#0e8088;" parent="1" vertex="1">
          <mxGeometry x="680" y="230" width="80" height="80" as="geometry" />
        </mxCell>
        <mxCell id="d1g-8U-fYo1eyLPwnb_f-6" value="Dockerfile.&lt;div&gt;postgres&lt;/div&gt;" style="whiteSpace=wrap;html=1;aspect=fixed;fillColor=#b0e3e6;strokeColor=#0e8088;" parent="1" vertex="1">
          <mxGeometry x="240" y="230" width="80" height="80" as="geometry" />
        </mxCell>
        <mxCell id="d1g-8U-fYo1eyLPwnb_f-7" value="Dockerfile" style="whiteSpace=wrap;html=1;aspect=fixed;fillColor=#b0e3e6;strokeColor=#0e8088;" parent="1" vertex="1">
          <mxGeometry x="400" y="230" width="80" height="80" as="geometry" />
        </mxCell>
        <mxCell id="d1g-8U-fYo1eyLPwnb_f-8" value="" style="endArrow=classic;html=1;rounded=0;entryX=0.5;entryY=0;entryDx=0;entryDy=0;exitX=0.19;exitY=0.967;exitDx=0;exitDy=0;exitPerimeter=0;" parent="1" source="d1g-8U-fYo1eyLPwnb_f-1" target="d1g-8U-fYo1eyLPwnb_f-4" edge="1">
          <mxGeometry width="50" height="50" relative="1" as="geometry">
            <mxPoint x="90" y="180" as="sourcePoint" />
            <mxPoint x="135" y="150" as="targetPoint" />
          </mxGeometry>
        </mxCell>
        <mxCell id="d1g-8U-fYo1eyLPwnb_f-9" value="" style="endArrow=classic;html=1;rounded=0;entryX=0.5;entryY=0;entryDx=0;entryDy=0;exitX=0.19;exitY=0.967;exitDx=0;exitDy=0;exitPerimeter=0;" parent="1" target="d1g-8U-fYo1eyLPwnb_f-5" edge="1">
          <mxGeometry width="50" height="50" relative="1" as="geometry">
            <mxPoint x="719.5" y="150" as="sourcePoint" />
            <mxPoint x="720.5" y="211" as="targetPoint" />
          </mxGeometry>
        </mxCell>
        <mxCell id="d1g-8U-fYo1eyLPwnb_f-10" value="" style="endArrow=classic;html=1;rounded=0;entryX=0.5;entryY=0;entryDx=0;entryDy=0;exitX=0.19;exitY=0.967;exitDx=0;exitDy=0;exitPerimeter=0;" parent="1" edge="1">
          <mxGeometry width="50" height="50" relative="1" as="geometry">
            <mxPoint x="439.5" y="170" as="sourcePoint" />
            <mxPoint x="440.5" y="231" as="targetPoint" />
          </mxGeometry>
        </mxCell>
        <mxCell id="d1g-8U-fYo1eyLPwnb_f-11" value="" style="endArrow=classic;html=1;rounded=0;entryX=0.5;entryY=0;entryDx=0;entryDy=0;exitX=0.19;exitY=0.967;exitDx=0;exitDy=0;exitPerimeter=0;" parent="1" edge="1">
          <mxGeometry width="50" height="50" relative="1" as="geometry">
            <mxPoint x="279.5" y="170" as="sourcePoint" />
            <mxPoint x="280.5" y="231" as="targetPoint" />
          </mxGeometry>
        </mxCell>
        <mxCell id="d1g-8U-fYo1eyLPwnb_f-16" value="Requirements" style="rounded=1;whiteSpace=wrap;html=1;" parent="1" vertex="1">
          <mxGeometry x="110" y="290" width="90" height="30" as="geometry" />
        </mxCell>
        <mxCell id="d1g-8U-fYo1eyLPwnb_f-17" value="Requirements" style="rounded=1;whiteSpace=wrap;html=1;" parent="1" vertex="1">
          <mxGeometry x="440" y="290" width="90" height="30" as="geometry" />
        </mxCell>
        <mxCell id="y-F9UAM5kPfjd5I5bMuF-2" value="Docker compose yaml" style="text;html=1;align=center;verticalAlign=middle;whiteSpace=wrap;rounded=0;" parent="1" vertex="1">
          <mxGeometry y="30" width="300" height="30" as="geometry" />
        </mxCell>
        <mxCell id="y-F9UAM5kPfjd5I5bMuF-4" value="Makefile&amp;nbsp;" style="whiteSpace=wrap;html=1;aspect=fixed;fillColor=#fff2cc;gradientColor=#ffd966;strokeColor=#d6b656;" parent="1" vertex="1">
          <mxGeometry x="120" y="410" width="150" height="150" as="geometry" />
        </mxCell>
        <mxCell id="y-F9UAM5kPfjd5I5bMuF-7" value="" style="endArrow=classic;html=1;rounded=0;entryX=0.182;entryY=1;entryDx=0;entryDy=0;entryPerimeter=0;" parent="1" source="y-F9UAM5kPfjd5I5bMuF-4" target="d1g-8U-fYo1eyLPwnb_f-15" edge="1">
          <mxGeometry width="50" height="50" relative="1" as="geometry">
            <mxPoint x="160" y="610" as="sourcePoint" />
            <mxPoint x="210" y="560" as="targetPoint" />
          </mxGeometry>
        </mxCell>
        <mxCell id="y-F9UAM5kPfjd5I5bMuF-8" value="Doppler&lt;div&gt;Get Env var&lt;/div&gt;" style="ellipse;shape=cloud;whiteSpace=wrap;html=1;fillColor=#dae8fc;gradientColor=#7ea6e0;strokeColor=#6c8ebf;" parent="1" vertex="1">
          <mxGeometry x="365" y="400" width="240" height="130" as="geometry" />
        </mxCell>
        <mxCell id="y-F9UAM5kPfjd5I5bMuF-9" value="" style="endArrow=classic;html=1;rounded=0;exitX=0.16;exitY=0.55;exitDx=0;exitDy=0;exitPerimeter=0;" parent="1" source="y-F9UAM5kPfjd5I5bMuF-8" target="y-F9UAM5kPfjd5I5bMuF-4" edge="1">
          <mxGeometry width="50" height="50" relative="1" as="geometry">
            <mxPoint x="360" y="650" as="sourcePoint" />
            <mxPoint x="410" y="600" as="targetPoint" />
            <Array as="points">
              <mxPoint x="320" y="490" />
            </Array>
          </mxGeometry>
        </mxCell>
        <mxCell id="hdxLoZ0f_oi-p9FEh8f0-1" value="" style="shape=image;verticalLabelPosition=bottom;labelBackgroundColor=default;verticalAlign=top;aspect=fixed;imageAspect=0;image=https://bunnyacademy.b-cdn.net/what-is-docker.png;" parent="1" vertex="1">
          <mxGeometry x="210" y="12.93" width="69" height="57.07" as="geometry" />
        </mxCell>
        <mxCell id="hdxLoZ0f_oi-p9FEh8f0-2" value="" style="shape=image;verticalLabelPosition=bottom;labelBackgroundColor=default;verticalAlign=top;aspect=fixed;imageAspect=0;image=https://upload.wikimedia.org/wikipedia/commons/thumb/c/c3/Python-logo-notext.svg/640px-Python-logo-notext.svg.png;" parent="1" vertex="1">
          <mxGeometry x="77" y="149.48" width="47" height="51.63" as="geometry" />
        </mxCell>
        <mxCell id="hdxLoZ0f_oi-p9FEh8f0-3" value="" style="shape=image;verticalLabelPosition=bottom;labelBackgroundColor=default;verticalAlign=top;aspect=fixed;imageAspect=0;image=https://upload.wikimedia.org/wikipedia/commons/thumb/2/29/Postgresql_elephant.svg/1200px-Postgresql_elephant.svg.png;" parent="1" vertex="1">
          <mxGeometry x="215" y="150.59" width="49" height="50.52" as="geometry" />
        </mxCell>
        <mxCell id="hdxLoZ0f_oi-p9FEh8f0-6" value="" style="shape=image;verticalLabelPosition=bottom;labelBackgroundColor=default;verticalAlign=top;aspect=fixed;imageAspect=0;image=https://images.g2crowd.com/uploads/product/image/social_landscape/social_landscape_41721dffd24c20b3a126c8af1578f0f7/doppler-secrets-management-platform.jpg;clipPath=inset(18.35% 33.33% 18.35% 33.33%);" parent="1" vertex="1">
          <mxGeometry x="554.85" y="479.85" width="50.15" height="50.15" as="geometry" />
        </mxCell>
        <mxCell id="hdxLoZ0f_oi-p9FEh8f0-8" value="" style="shape=image;verticalLabelPosition=bottom;labelBackgroundColor=default;verticalAlign=top;aspect=fixed;imageAspect=0;image=https://pages.cs.wisc.edu/~almazroy/makefile.png;" parent="1" vertex="1">
          <mxGeometry x="227" y="512" width="78" height="76.18" as="geometry" />
        </mxCell>
      </root>
    </mxGraphModel>
  </diagram>
  <diagram id="6lpOfiS1-zt0a91DjQVK" name="Modelo de Dados Gestão Escolar">
    <mxGraphModel dx="2011" dy="1004" grid="0" gridSize="10" guides="1" tooltips="1" connect="1" arrows="1" fold="1" page="1" pageScale="1" pageWidth="850" pageHeight="1100" math="0" shadow="0">
      <root>
        <mxCell id="0" />
        <mxCell id="1" parent="0" />
        <mxCell id="_PnPqclefPxOo7-WqgRQ-5" value="" style="endArrow=classic;html=1;rounded=0;exitX=0.5;exitY=1;exitDx=0;exitDy=0;" parent="1" source="_PnPqclefPxOo7-WqgRQ-2" edge="1">
          <mxGeometry width="50" height="50" relative="1" as="geometry">
            <mxPoint x="450" y="410" as="sourcePoint" />
            <mxPoint x="349" y="369.906779661017" as="targetPoint" />
          </mxGeometry>
        </mxCell>
        <mxCell id="_PnPqclefPxOo7-WqgRQ-6" value="" style="endArrow=classic;html=1;rounded=0;exitX=0.5;exitY=1;exitDx=0;exitDy=0;entryX=1;entryY=0.25;entryDx=0;entryDy=0;" parent="1" source="_afxj9w6u6K3qW4Hvf0Y-4" edge="1">
          <mxGeometry width="50" height="50" relative="1" as="geometry">
            <mxPoint x="450" y="410" as="sourcePoint" />
            <mxPoint x="489" y="368" as="targetPoint" />
          </mxGeometry>
        </mxCell>
        <mxCell id="_PnPqclefPxOo7-WqgRQ-13" value="" style="endArrow=classic;html=1;rounded=0;exitX=0.5;exitY=0;exitDx=0;exitDy=0;entryX=0.986;entryY=0.695;entryDx=0;entryDy=0;entryPerimeter=0;" parent="1" target="_afxj9w6u6K3qW4Hvf0Y-1" edge="1">
          <mxGeometry width="50" height="50" relative="1" as="geometry">
            <mxPoint x="652" y="501" as="sourcePoint" />
            <mxPoint x="500" y="360" as="targetPoint" />
          </mxGeometry>
        </mxCell>
        <mxCell id="kdknPlnCLL3lBBNTN0fy-2" value="Turma" style="shape=table;startSize=31;container=1;collapsible=1;childLayout=tableLayout;fixedRows=1;rowLines=0;fontStyle=1;align=center;resizeLast=1;html=1;fillColor=#e1d5e7;strokeColor=#9673a6;" parent="1" vertex="1">
          <mxGeometry x="448" y="351" width="180" height="267" as="geometry">
            <mxRectangle x="116" y="686" width="64" height="30" as="alternateBounds" />
          </mxGeometry>
        </mxCell>
        <mxCell id="kdknPlnCLL3lBBNTN0fy-3" value="" style="shape=tableRow;horizontal=0;startSize=0;swimlaneHead=0;swimlaneBody=0;fillColor=none;collapsible=0;dropTarget=0;points=[[0,0.5],[1,0.5]];portConstraint=eastwest;top=0;left=0;right=0;bottom=1;" parent="kdknPlnCLL3lBBNTN0fy-2" vertex="1">
          <mxGeometry y="31" width="180" height="26" as="geometry" />
        </mxCell>
        <mxCell id="kdknPlnCLL3lBBNTN0fy-4" value="PK" style="shape=partialRectangle;connectable=0;fillColor=none;top=0;left=0;bottom=0;right=0;fontStyle=1;overflow=hidden;whiteSpace=wrap;html=1;" parent="kdknPlnCLL3lBBNTN0fy-3" vertex="1">
          <mxGeometry width="30" height="26" as="geometry">
            <mxRectangle width="30" height="26" as="alternateBounds" />
          </mxGeometry>
        </mxCell>
        <mxCell id="kdknPlnCLL3lBBNTN0fy-5" value="ID" style="shape=partialRectangle;connectable=0;fillColor=none;top=0;left=0;bottom=0;right=0;align=left;spacingLeft=6;fontStyle=5;overflow=hidden;whiteSpace=wrap;html=1;" parent="kdknPlnCLL3lBBNTN0fy-3" vertex="1">
          <mxGeometry x="30" width="150" height="26" as="geometry">
            <mxRectangle width="150" height="26" as="alternateBounds" />
          </mxGeometry>
        </mxCell>
        <mxCell id="kdknPlnCLL3lBBNTN0fy-6" value="" style="shape=tableRow;horizontal=0;startSize=0;swimlaneHead=0;swimlaneBody=0;fillColor=none;collapsible=0;dropTarget=0;points=[[0,0.5],[1,0.5]];portConstraint=eastwest;top=0;left=0;right=0;bottom=0;" parent="kdknPlnCLL3lBBNTN0fy-2" vertex="1">
          <mxGeometry y="57" width="180" height="30" as="geometry" />
        </mxCell>
        <mxCell id="kdknPlnCLL3lBBNTN0fy-7" value="&lt;b&gt;FK&lt;/b&gt;" style="shape=partialRectangle;connectable=0;fillColor=none;top=0;left=0;bottom=0;right=0;editable=1;overflow=hidden;whiteSpace=wrap;html=1;" parent="kdknPlnCLL3lBBNTN0fy-6" vertex="1">
          <mxGeometry width="30" height="30" as="geometry">
            <mxRectangle width="30" height="30" as="alternateBounds" />
          </mxGeometry>
        </mxCell>
        <mxCell id="kdknPlnCLL3lBBNTN0fy-8" value="subject_id" style="shape=partialRectangle;connectable=0;fillColor=none;top=0;left=0;bottom=0;right=0;align=left;spacingLeft=6;overflow=hidden;whiteSpace=wrap;html=1;" parent="kdknPlnCLL3lBBNTN0fy-6" vertex="1">
          <mxGeometry x="30" width="150" height="30" as="geometry">
            <mxRectangle width="150" height="30" as="alternateBounds" />
          </mxGeometry>
        </mxCell>
        <mxCell id="kdknPlnCLL3lBBNTN0fy-9" value="" style="shape=tableRow;horizontal=0;startSize=0;swimlaneHead=0;swimlaneBody=0;fillColor=none;collapsible=0;dropTarget=0;points=[[0,0.5],[1,0.5]];portConstraint=eastwest;top=0;left=0;right=0;bottom=0;" parent="kdknPlnCLL3lBBNTN0fy-2" vertex="1">
          <mxGeometry y="87" width="180" height="30" as="geometry" />
        </mxCell>
        <mxCell id="kdknPlnCLL3lBBNTN0fy-10" value="&lt;b&gt;FK&lt;/b&gt;" style="shape=partialRectangle;connectable=0;fillColor=none;top=0;left=0;bottom=0;right=0;editable=1;overflow=hidden;whiteSpace=wrap;html=1;" parent="kdknPlnCLL3lBBNTN0fy-9" vertex="1">
          <mxGeometry width="30" height="30" as="geometry">
            <mxRectangle width="30" height="30" as="alternateBounds" />
          </mxGeometry>
        </mxCell>
        <mxCell id="kdknPlnCLL3lBBNTN0fy-11" value="teacher_id" style="shape=partialRectangle;connectable=0;fillColor=none;top=0;left=0;bottom=0;right=0;align=left;spacingLeft=6;overflow=hidden;whiteSpace=wrap;html=1;" parent="kdknPlnCLL3lBBNTN0fy-9" vertex="1">
          <mxGeometry x="30" width="150" height="30" as="geometry">
            <mxRectangle width="150" height="30" as="alternateBounds" />
          </mxGeometry>
        </mxCell>
        <mxCell id="kdknPlnCLL3lBBNTN0fy-12" value="" style="shape=tableRow;horizontal=0;startSize=0;swimlaneHead=0;swimlaneBody=0;fillColor=none;collapsible=0;dropTarget=0;points=[[0,0.5],[1,0.5]];portConstraint=eastwest;top=0;left=0;right=0;bottom=0;" parent="kdknPlnCLL3lBBNTN0fy-2" vertex="1">
          <mxGeometry y="117" width="180" height="30" as="geometry" />
        </mxCell>
        <mxCell id="kdknPlnCLL3lBBNTN0fy-13" value="&lt;b&gt;FK&lt;/b&gt;" style="shape=partialRectangle;connectable=0;fillColor=none;top=0;left=0;bottom=0;right=0;editable=1;overflow=hidden;whiteSpace=wrap;html=1;" parent="kdknPlnCLL3lBBNTN0fy-12" vertex="1">
          <mxGeometry width="30" height="30" as="geometry">
            <mxRectangle width="30" height="30" as="alternateBounds" />
          </mxGeometry>
        </mxCell>
        <mxCell id="kdknPlnCLL3lBBNTN0fy-14" value="term_id" style="shape=partialRectangle;connectable=0;fillColor=none;top=0;left=0;bottom=0;right=0;align=left;spacingLeft=6;overflow=hidden;whiteSpace=wrap;html=1;" parent="kdknPlnCLL3lBBNTN0fy-12" vertex="1">
          <mxGeometry x="30" width="150" height="30" as="geometry">
            <mxRectangle width="150" height="30" as="alternateBounds" />
          </mxGeometry>
        </mxCell>
        <mxCell id="z-KsflchiQsLVIYyh2aT-4" style="shape=tableRow;horizontal=0;startSize=0;swimlaneHead=0;swimlaneBody=0;fillColor=none;collapsible=0;dropTarget=0;points=[[0,0.5],[1,0.5]];portConstraint=eastwest;top=0;left=0;right=0;bottom=0;" vertex="1" parent="kdknPlnCLL3lBBNTN0fy-2">
          <mxGeometry y="147" width="180" height="30" as="geometry" />
        </mxCell>
        <mxCell id="z-KsflchiQsLVIYyh2aT-5" value="&lt;b&gt;FK&lt;/b&gt;" style="shape=partialRectangle;connectable=0;fillColor=none;top=0;left=0;bottom=0;right=0;editable=1;overflow=hidden;whiteSpace=wrap;html=1;" vertex="1" parent="z-KsflchiQsLVIYyh2aT-4">
          <mxGeometry width="30" height="30" as="geometry">
            <mxRectangle width="30" height="30" as="alternateBounds" />
          </mxGeometry>
        </mxCell>
        <mxCell id="z-KsflchiQsLVIYyh2aT-6" value="start_period_id" style="shape=partialRectangle;connectable=0;fillColor=none;top=0;left=0;bottom=0;right=0;align=left;spacingLeft=6;overflow=hidden;whiteSpace=wrap;html=1;" vertex="1" parent="z-KsflchiQsLVIYyh2aT-4">
          <mxGeometry x="30" width="150" height="30" as="geometry">
            <mxRectangle width="150" height="30" as="alternateBounds" />
          </mxGeometry>
        </mxCell>
        <mxCell id="z-KsflchiQsLVIYyh2aT-1" style="shape=tableRow;horizontal=0;startSize=0;swimlaneHead=0;swimlaneBody=0;fillColor=none;collapsible=0;dropTarget=0;points=[[0,0.5],[1,0.5]];portConstraint=eastwest;top=0;left=0;right=0;bottom=0;" vertex="1" parent="kdknPlnCLL3lBBNTN0fy-2">
          <mxGeometry y="177" width="180" height="30" as="geometry" />
        </mxCell>
        <mxCell id="z-KsflchiQsLVIYyh2aT-2" value="&lt;b&gt;FK&lt;/b&gt;" style="shape=partialRectangle;connectable=0;fillColor=none;top=0;left=0;bottom=0;right=0;editable=1;overflow=hidden;whiteSpace=wrap;html=1;" vertex="1" parent="z-KsflchiQsLVIYyh2aT-1">
          <mxGeometry width="30" height="30" as="geometry">
            <mxRectangle width="30" height="30" as="alternateBounds" />
          </mxGeometry>
        </mxCell>
        <mxCell id="z-KsflchiQsLVIYyh2aT-3" value="end_period_id" style="shape=partialRectangle;connectable=0;fillColor=none;top=0;left=0;bottom=0;right=0;align=left;spacingLeft=6;overflow=hidden;whiteSpace=wrap;html=1;" vertex="1" parent="z-KsflchiQsLVIYyh2aT-1">
          <mxGeometry x="30" width="150" height="30" as="geometry">
            <mxRectangle width="150" height="30" as="alternateBounds" />
          </mxGeometry>
        </mxCell>
        <mxCell id="z-KsflchiQsLVIYyh2aT-7" style="shape=tableRow;horizontal=0;startSize=0;swimlaneHead=0;swimlaneBody=0;fillColor=none;collapsible=0;dropTarget=0;points=[[0,0.5],[1,0.5]];portConstraint=eastwest;top=0;left=0;right=0;bottom=0;" vertex="1" parent="kdknPlnCLL3lBBNTN0fy-2">
          <mxGeometry y="207" width="180" height="30" as="geometry" />
        </mxCell>
        <mxCell id="z-KsflchiQsLVIYyh2aT-8" value="&lt;b&gt;FK&lt;/b&gt;" style="shape=partialRectangle;connectable=0;fillColor=none;top=0;left=0;bottom=0;right=0;editable=1;overflow=hidden;whiteSpace=wrap;html=1;" vertex="1" parent="z-KsflchiQsLVIYyh2aT-7">
          <mxGeometry width="30" height="30" as="geometry">
            <mxRectangle width="30" height="30" as="alternateBounds" />
          </mxGeometry>
        </mxCell>
        <mxCell id="z-KsflchiQsLVIYyh2aT-9" value="classroom_id" style="shape=partialRectangle;connectable=0;fillColor=none;top=0;left=0;bottom=0;right=0;align=left;spacingLeft=6;overflow=hidden;whiteSpace=wrap;html=1;" vertex="1" parent="z-KsflchiQsLVIYyh2aT-7">
          <mxGeometry x="30" width="150" height="30" as="geometry">
            <mxRectangle width="150" height="30" as="alternateBounds" />
          </mxGeometry>
        </mxCell>
        <mxCell id="z-KsflchiQsLVIYyh2aT-11" style="shape=tableRow;horizontal=0;startSize=0;swimlaneHead=0;swimlaneBody=0;fillColor=none;collapsible=0;dropTarget=0;points=[[0,0.5],[1,0.5]];portConstraint=eastwest;top=0;left=0;right=0;bottom=0;" vertex="1" parent="kdknPlnCLL3lBBNTN0fy-2">
          <mxGeometry y="237" width="180" height="30" as="geometry" />
        </mxCell>
        <mxCell id="z-KsflchiQsLVIYyh2aT-12" style="shape=partialRectangle;connectable=0;fillColor=none;top=0;left=0;bottom=0;right=0;editable=1;overflow=hidden;whiteSpace=wrap;html=1;" vertex="1" parent="z-KsflchiQsLVIYyh2aT-11">
          <mxGeometry width="30" height="30" as="geometry">
            <mxRectangle width="30" height="30" as="alternateBounds" />
          </mxGeometry>
        </mxCell>
        <mxCell id="z-KsflchiQsLVIYyh2aT-13" value="name" style="shape=partialRectangle;connectable=0;fillColor=none;top=0;left=0;bottom=0;right=0;align=left;spacingLeft=6;overflow=hidden;whiteSpace=wrap;html=1;" vertex="1" parent="z-KsflchiQsLVIYyh2aT-11">
          <mxGeometry x="30" width="150" height="30" as="geometry">
            <mxRectangle width="150" height="30" as="alternateBounds" />
          </mxGeometry>
        </mxCell>
        <mxCell id="z-KsflchiQsLVIYyh2aT-14" value="term" style="shape=table;startSize=31;container=1;collapsible=1;childLayout=tableLayout;fixedRows=1;rowLines=0;fontStyle=1;align=center;resizeLast=1;html=1;fillColor=#fff2cc;strokeColor=#d6b656;" vertex="1" parent="1">
          <mxGeometry x="146" y="271" width="180" height="177" as="geometry">
            <mxRectangle x="116" y="686" width="64" height="30" as="alternateBounds" />
          </mxGeometry>
        </mxCell>
        <mxCell id="z-KsflchiQsLVIYyh2aT-15" value="" style="shape=tableRow;horizontal=0;startSize=0;swimlaneHead=0;swimlaneBody=0;fillColor=none;collapsible=0;dropTarget=0;points=[[0,0.5],[1,0.5]];portConstraint=eastwest;top=0;left=0;right=0;bottom=1;" vertex="1" parent="z-KsflchiQsLVIYyh2aT-14">
          <mxGeometry y="31" width="180" height="26" as="geometry" />
        </mxCell>
        <mxCell id="z-KsflchiQsLVIYyh2aT-16" value="PK" style="shape=partialRectangle;connectable=0;fillColor=none;top=0;left=0;bottom=0;right=0;fontStyle=1;overflow=hidden;whiteSpace=wrap;html=1;" vertex="1" parent="z-KsflchiQsLVIYyh2aT-15">
          <mxGeometry width="30" height="26" as="geometry">
            <mxRectangle width="30" height="26" as="alternateBounds" />
          </mxGeometry>
        </mxCell>
        <mxCell id="z-KsflchiQsLVIYyh2aT-17" value="ID" style="shape=partialRectangle;connectable=0;fillColor=none;top=0;left=0;bottom=0;right=0;align=left;spacingLeft=6;fontStyle=5;overflow=hidden;whiteSpace=wrap;html=1;" vertex="1" parent="z-KsflchiQsLVIYyh2aT-15">
          <mxGeometry x="30" width="150" height="26" as="geometry">
            <mxRectangle width="150" height="26" as="alternateBounds" />
          </mxGeometry>
        </mxCell>
        <mxCell id="z-KsflchiQsLVIYyh2aT-18" value="" style="shape=tableRow;horizontal=0;startSize=0;swimlaneHead=0;swimlaneBody=0;fillColor=none;collapsible=0;dropTarget=0;points=[[0,0.5],[1,0.5]];portConstraint=eastwest;top=0;left=0;right=0;bottom=0;" vertex="1" parent="z-KsflchiQsLVIYyh2aT-14">
          <mxGeometry y="57" width="180" height="30" as="geometry" />
        </mxCell>
        <mxCell id="z-KsflchiQsLVIYyh2aT-19" value="&lt;b&gt;FK&lt;/b&gt;" style="shape=partialRectangle;connectable=0;fillColor=none;top=0;left=0;bottom=0;right=0;editable=1;overflow=hidden;whiteSpace=wrap;html=1;" vertex="1" parent="z-KsflchiQsLVIYyh2aT-18">
          <mxGeometry width="30" height="30" as="geometry">
            <mxRectangle width="30" height="30" as="alternateBounds" />
          </mxGeometry>
        </mxCell>
        <mxCell id="z-KsflchiQsLVIYyh2aT-20" value="year_id" style="shape=partialRectangle;connectable=0;fillColor=none;top=0;left=0;bottom=0;right=0;align=left;spacingLeft=6;overflow=hidden;whiteSpace=wrap;html=1;" vertex="1" parent="z-KsflchiQsLVIYyh2aT-18">
          <mxGeometry x="30" width="150" height="30" as="geometry">
            <mxRectangle width="150" height="30" as="alternateBounds" />
          </mxGeometry>
        </mxCell>
        <mxCell id="z-KsflchiQsLVIYyh2aT-21" value="" style="shape=tableRow;horizontal=0;startSize=0;swimlaneHead=0;swimlaneBody=0;fillColor=none;collapsible=0;dropTarget=0;points=[[0,0.5],[1,0.5]];portConstraint=eastwest;top=0;left=0;right=0;bottom=0;" vertex="1" parent="z-KsflchiQsLVIYyh2aT-14">
          <mxGeometry y="87" width="180" height="30" as="geometry" />
        </mxCell>
        <mxCell id="z-KsflchiQsLVIYyh2aT-22" value="" style="shape=partialRectangle;connectable=0;fillColor=none;top=0;left=0;bottom=0;right=0;editable=1;overflow=hidden;whiteSpace=wrap;html=1;" vertex="1" parent="z-KsflchiQsLVIYyh2aT-21">
          <mxGeometry width="30" height="30" as="geometry">
            <mxRectangle width="30" height="30" as="alternateBounds" />
          </mxGeometry>
        </mxCell>
        <mxCell id="z-KsflchiQsLVIYyh2aT-23" value="term_number" style="shape=partialRectangle;connectable=0;fillColor=none;top=0;left=0;bottom=0;right=0;align=left;spacingLeft=6;overflow=hidden;whiteSpace=wrap;html=1;" vertex="1" parent="z-KsflchiQsLVIYyh2aT-21">
          <mxGeometry x="30" width="150" height="30" as="geometry">
            <mxRectangle width="150" height="30" as="alternateBounds" />
          </mxGeometry>
        </mxCell>
        <mxCell id="z-KsflchiQsLVIYyh2aT-24" value="" style="shape=tableRow;horizontal=0;startSize=0;swimlaneHead=0;swimlaneBody=0;fillColor=none;collapsible=0;dropTarget=0;points=[[0,0.5],[1,0.5]];portConstraint=eastwest;top=0;left=0;right=0;bottom=0;" vertex="1" parent="z-KsflchiQsLVIYyh2aT-14">
          <mxGeometry y="117" width="180" height="30" as="geometry" />
        </mxCell>
        <mxCell id="z-KsflchiQsLVIYyh2aT-25" value="" style="shape=partialRectangle;connectable=0;fillColor=none;top=0;left=0;bottom=0;right=0;editable=1;overflow=hidden;whiteSpace=wrap;html=1;" vertex="1" parent="z-KsflchiQsLVIYyh2aT-24">
          <mxGeometry width="30" height="30" as="geometry">
            <mxRectangle width="30" height="30" as="alternateBounds" />
          </mxGeometry>
        </mxCell>
        <mxCell id="z-KsflchiQsLVIYyh2aT-26" value="start_date" style="shape=partialRectangle;connectable=0;fillColor=none;top=0;left=0;bottom=0;right=0;align=left;spacingLeft=6;overflow=hidden;whiteSpace=wrap;html=1;" vertex="1" parent="z-KsflchiQsLVIYyh2aT-24">
          <mxGeometry x="30" width="150" height="30" as="geometry">
            <mxRectangle width="150" height="30" as="alternateBounds" />
          </mxGeometry>
        </mxCell>
        <mxCell id="z-KsflchiQsLVIYyh2aT-27" style="shape=tableRow;horizontal=0;startSize=0;swimlaneHead=0;swimlaneBody=0;fillColor=none;collapsible=0;dropTarget=0;points=[[0,0.5],[1,0.5]];portConstraint=eastwest;top=0;left=0;right=0;bottom=0;" vertex="1" parent="z-KsflchiQsLVIYyh2aT-14">
          <mxGeometry y="147" width="180" height="30" as="geometry" />
        </mxCell>
        <mxCell id="z-KsflchiQsLVIYyh2aT-28" value="" style="shape=partialRectangle;connectable=0;fillColor=none;top=0;left=0;bottom=0;right=0;editable=1;overflow=hidden;whiteSpace=wrap;html=1;" vertex="1" parent="z-KsflchiQsLVIYyh2aT-27">
          <mxGeometry width="30" height="30" as="geometry">
            <mxRectangle width="30" height="30" as="alternateBounds" />
          </mxGeometry>
        </mxCell>
        <mxCell id="z-KsflchiQsLVIYyh2aT-29" value="end_date" style="shape=partialRectangle;connectable=0;fillColor=none;top=0;left=0;bottom=0;right=0;align=left;spacingLeft=6;overflow=hidden;whiteSpace=wrap;html=1;" vertex="1" parent="z-KsflchiQsLVIYyh2aT-27">
          <mxGeometry x="30" width="150" height="30" as="geometry">
            <mxRectangle width="150" height="30" as="alternateBounds" />
          </mxGeometry>
        </mxCell>
        <mxCell id="z-KsflchiQsLVIYyh2aT-39" style="edgeStyle=orthogonalEdgeStyle;rounded=0;orthogonalLoop=1;jettySize=auto;html=1;" edge="1" parent="1" source="kdknPlnCLL3lBBNTN0fy-12" target="z-KsflchiQsLVIYyh2aT-15">
          <mxGeometry relative="1" as="geometry" />
        </mxCell>
        <mxCell id="z-KsflchiQsLVIYyh2aT-40" value="classroom_types" style="shape=table;startSize=31;container=1;collapsible=1;childLayout=tableLayout;fixedRows=1;rowLines=0;fontStyle=1;align=center;resizeLast=1;html=1;fillColor=#d5e8d4;strokeColor=#82b366;" vertex="1" parent="1">
          <mxGeometry x="22" y="698" width="180" height="87" as="geometry">
            <mxRectangle x="116" y="686" width="64" height="30" as="alternateBounds" />
          </mxGeometry>
        </mxCell>
        <mxCell id="z-KsflchiQsLVIYyh2aT-41" value="" style="shape=tableRow;horizontal=0;startSize=0;swimlaneHead=0;swimlaneBody=0;fillColor=none;collapsible=0;dropTarget=0;points=[[0,0.5],[1,0.5]];portConstraint=eastwest;top=0;left=0;right=0;bottom=1;" vertex="1" parent="z-KsflchiQsLVIYyh2aT-40">
          <mxGeometry y="31" width="180" height="26" as="geometry" />
        </mxCell>
        <mxCell id="z-KsflchiQsLVIYyh2aT-42" value="PK" style="shape=partialRectangle;connectable=0;fillColor=none;top=0;left=0;bottom=0;right=0;fontStyle=1;overflow=hidden;whiteSpace=wrap;html=1;" vertex="1" parent="z-KsflchiQsLVIYyh2aT-41">
          <mxGeometry width="30" height="26" as="geometry">
            <mxRectangle width="30" height="26" as="alternateBounds" />
          </mxGeometry>
        </mxCell>
        <mxCell id="z-KsflchiQsLVIYyh2aT-43" value="ID" style="shape=partialRectangle;connectable=0;fillColor=none;top=0;left=0;bottom=0;right=0;align=left;spacingLeft=6;fontStyle=5;overflow=hidden;whiteSpace=wrap;html=1;" vertex="1" parent="z-KsflchiQsLVIYyh2aT-41">
          <mxGeometry x="30" width="150" height="26" as="geometry">
            <mxRectangle width="150" height="26" as="alternateBounds" />
          </mxGeometry>
        </mxCell>
        <mxCell id="z-KsflchiQsLVIYyh2aT-44" value="" style="shape=tableRow;horizontal=0;startSize=0;swimlaneHead=0;swimlaneBody=0;fillColor=none;collapsible=0;dropTarget=0;points=[[0,0.5],[1,0.5]];portConstraint=eastwest;top=0;left=0;right=0;bottom=0;" vertex="1" parent="z-KsflchiQsLVIYyh2aT-40">
          <mxGeometry y="57" width="180" height="30" as="geometry" />
        </mxCell>
        <mxCell id="z-KsflchiQsLVIYyh2aT-45" value="&lt;span style=&quot;white-space: pre;&quot;&gt;&#x9;&lt;/span&gt;&lt;span style=&quot;white-space: pre;&quot;&gt;&#x9;&lt;/span&gt;" style="shape=partialRectangle;connectable=0;fillColor=none;top=0;left=0;bottom=0;right=0;editable=1;overflow=hidden;whiteSpace=wrap;html=1;" vertex="1" parent="z-KsflchiQsLVIYyh2aT-44">
          <mxGeometry width="30" height="30" as="geometry">
            <mxRectangle width="30" height="30" as="alternateBounds" />
          </mxGeometry>
        </mxCell>
        <mxCell id="z-KsflchiQsLVIYyh2aT-46" value="name" style="shape=partialRectangle;connectable=0;fillColor=none;top=0;left=0;bottom=0;right=0;align=left;spacingLeft=6;overflow=hidden;whiteSpace=wrap;html=1;" vertex="1" parent="z-KsflchiQsLVIYyh2aT-44">
          <mxGeometry x="30" width="150" height="30" as="geometry">
            <mxRectangle width="150" height="30" as="alternateBounds" />
          </mxGeometry>
        </mxCell>
        <mxCell id="z-KsflchiQsLVIYyh2aT-56" value="classroom" style="shape=table;startSize=31;container=1;collapsible=1;childLayout=tableLayout;fixedRows=1;rowLines=0;fontStyle=1;align=center;resizeLast=1;html=1;fillColor=#ffe6cc;strokeColor=#d79b00;" vertex="1" parent="1">
          <mxGeometry x="245" y="670" width="180" height="147" as="geometry">
            <mxRectangle x="116" y="686" width="64" height="30" as="alternateBounds" />
          </mxGeometry>
        </mxCell>
        <mxCell id="z-KsflchiQsLVIYyh2aT-57" value="" style="shape=tableRow;horizontal=0;startSize=0;swimlaneHead=0;swimlaneBody=0;fillColor=none;collapsible=0;dropTarget=0;points=[[0,0.5],[1,0.5]];portConstraint=eastwest;top=0;left=0;right=0;bottom=1;" vertex="1" parent="z-KsflchiQsLVIYyh2aT-56">
          <mxGeometry y="31" width="180" height="26" as="geometry" />
        </mxCell>
        <mxCell id="z-KsflchiQsLVIYyh2aT-58" value="PK" style="shape=partialRectangle;connectable=0;fillColor=none;top=0;left=0;bottom=0;right=0;fontStyle=1;overflow=hidden;whiteSpace=wrap;html=1;" vertex="1" parent="z-KsflchiQsLVIYyh2aT-57">
          <mxGeometry width="30" height="26" as="geometry">
            <mxRectangle width="30" height="26" as="alternateBounds" />
          </mxGeometry>
        </mxCell>
        <mxCell id="z-KsflchiQsLVIYyh2aT-59" value="ID" style="shape=partialRectangle;connectable=0;fillColor=none;top=0;left=0;bottom=0;right=0;align=left;spacingLeft=6;fontStyle=5;overflow=hidden;whiteSpace=wrap;html=1;" vertex="1" parent="z-KsflchiQsLVIYyh2aT-57">
          <mxGeometry x="30" width="150" height="26" as="geometry">
            <mxRectangle width="150" height="26" as="alternateBounds" />
          </mxGeometry>
        </mxCell>
        <mxCell id="z-KsflchiQsLVIYyh2aT-60" value="" style="shape=tableRow;horizontal=0;startSize=0;swimlaneHead=0;swimlaneBody=0;fillColor=none;collapsible=0;dropTarget=0;points=[[0,0.5],[1,0.5]];portConstraint=eastwest;top=0;left=0;right=0;bottom=0;" vertex="1" parent="z-KsflchiQsLVIYyh2aT-56">
          <mxGeometry y="57" width="180" height="30" as="geometry" />
        </mxCell>
        <mxCell id="z-KsflchiQsLVIYyh2aT-61" value="&lt;b&gt;FK&lt;/b&gt;" style="shape=partialRectangle;connectable=0;fillColor=none;top=0;left=0;bottom=0;right=0;editable=1;overflow=hidden;whiteSpace=wrap;html=1;" vertex="1" parent="z-KsflchiQsLVIYyh2aT-60">
          <mxGeometry width="30" height="30" as="geometry">
            <mxRectangle width="30" height="30" as="alternateBounds" />
          </mxGeometry>
        </mxCell>
        <mxCell id="z-KsflchiQsLVIYyh2aT-62" value="room_type" style="shape=partialRectangle;connectable=0;fillColor=none;top=0;left=0;bottom=0;right=0;align=left;spacingLeft=6;overflow=hidden;whiteSpace=wrap;html=1;" vertex="1" parent="z-KsflchiQsLVIYyh2aT-60">
          <mxGeometry x="30" width="150" height="30" as="geometry">
            <mxRectangle width="150" height="30" as="alternateBounds" />
          </mxGeometry>
        </mxCell>
        <mxCell id="z-KsflchiQsLVIYyh2aT-63" value="" style="shape=tableRow;horizontal=0;startSize=0;swimlaneHead=0;swimlaneBody=0;fillColor=none;collapsible=0;dropTarget=0;points=[[0,0.5],[1,0.5]];portConstraint=eastwest;top=0;left=0;right=0;bottom=0;" vertex="1" parent="z-KsflchiQsLVIYyh2aT-56">
          <mxGeometry y="87" width="180" height="30" as="geometry" />
        </mxCell>
        <mxCell id="z-KsflchiQsLVIYyh2aT-64" value="" style="shape=partialRectangle;connectable=0;fillColor=none;top=0;left=0;bottom=0;right=0;editable=1;overflow=hidden;whiteSpace=wrap;html=1;" vertex="1" parent="z-KsflchiQsLVIYyh2aT-63">
          <mxGeometry width="30" height="30" as="geometry">
            <mxRectangle width="30" height="30" as="alternateBounds" />
          </mxGeometry>
        </mxCell>
        <mxCell id="z-KsflchiQsLVIYyh2aT-65" value="room_name" style="shape=partialRectangle;connectable=0;fillColor=none;top=0;left=0;bottom=0;right=0;align=left;spacingLeft=6;overflow=hidden;whiteSpace=wrap;html=1;" vertex="1" parent="z-KsflchiQsLVIYyh2aT-63">
          <mxGeometry x="30" width="150" height="30" as="geometry">
            <mxRectangle width="150" height="30" as="alternateBounds" />
          </mxGeometry>
        </mxCell>
        <mxCell id="z-KsflchiQsLVIYyh2aT-66" value="" style="shape=tableRow;horizontal=0;startSize=0;swimlaneHead=0;swimlaneBody=0;fillColor=none;collapsible=0;dropTarget=0;points=[[0,0.5],[1,0.5]];portConstraint=eastwest;top=0;left=0;right=0;bottom=0;" vertex="1" parent="z-KsflchiQsLVIYyh2aT-56">
          <mxGeometry y="117" width="180" height="30" as="geometry" />
        </mxCell>
        <mxCell id="z-KsflchiQsLVIYyh2aT-67" value="" style="shape=partialRectangle;connectable=0;fillColor=none;top=0;left=0;bottom=0;right=0;editable=1;overflow=hidden;whiteSpace=wrap;html=1;" vertex="1" parent="z-KsflchiQsLVIYyh2aT-66">
          <mxGeometry width="30" height="30" as="geometry">
            <mxRectangle width="30" height="30" as="alternateBounds" />
          </mxGeometry>
        </mxCell>
        <mxCell id="z-KsflchiQsLVIYyh2aT-68" value="capacity" style="shape=partialRectangle;connectable=0;fillColor=none;top=0;left=0;bottom=0;right=0;align=left;spacingLeft=6;overflow=hidden;whiteSpace=wrap;html=1;" vertex="1" parent="z-KsflchiQsLVIYyh2aT-66">
          <mxGeometry x="30" width="150" height="30" as="geometry">
            <mxRectangle width="150" height="30" as="alternateBounds" />
          </mxGeometry>
        </mxCell>
        <mxCell id="z-KsflchiQsLVIYyh2aT-72" style="edgeStyle=orthogonalEdgeStyle;rounded=0;orthogonalLoop=1;jettySize=auto;html=1;" edge="1" parent="1" source="z-KsflchiQsLVIYyh2aT-7" target="z-KsflchiQsLVIYyh2aT-57">
          <mxGeometry relative="1" as="geometry" />
        </mxCell>
        <mxCell id="z-KsflchiQsLVIYyh2aT-73" style="edgeStyle=orthogonalEdgeStyle;rounded=0;orthogonalLoop=1;jettySize=auto;html=1;exitX=0;exitY=0.5;exitDx=0;exitDy=0;entryX=1;entryY=0.5;entryDx=0;entryDy=0;" edge="1" parent="1" source="z-KsflchiQsLVIYyh2aT-60" target="z-KsflchiQsLVIYyh2aT-41">
          <mxGeometry relative="1" as="geometry" />
        </mxCell>
        <mxCell id="z-KsflchiQsLVIYyh2aT-74" value="period" style="shape=table;startSize=31;container=1;collapsible=1;childLayout=tableLayout;fixedRows=1;rowLines=0;fontStyle=1;align=center;resizeLast=1;html=1;fillColor=#dae8fc;strokeColor=#6c8ebf;" vertex="1" parent="1">
          <mxGeometry x="-107" y="432" width="180" height="177" as="geometry">
            <mxRectangle x="116" y="686" width="64" height="30" as="alternateBounds" />
          </mxGeometry>
        </mxCell>
        <mxCell id="z-KsflchiQsLVIYyh2aT-75" value="" style="shape=tableRow;horizontal=0;startSize=0;swimlaneHead=0;swimlaneBody=0;fillColor=none;collapsible=0;dropTarget=0;points=[[0,0.5],[1,0.5]];portConstraint=eastwest;top=0;left=0;right=0;bottom=1;" vertex="1" parent="z-KsflchiQsLVIYyh2aT-74">
          <mxGeometry y="31" width="180" height="26" as="geometry" />
        </mxCell>
        <mxCell id="z-KsflchiQsLVIYyh2aT-76" value="PK" style="shape=partialRectangle;connectable=0;fillColor=none;top=0;left=0;bottom=0;right=0;fontStyle=1;overflow=hidden;whiteSpace=wrap;html=1;" vertex="1" parent="z-KsflchiQsLVIYyh2aT-75">
          <mxGeometry width="30" height="26" as="geometry">
            <mxRectangle width="30" height="26" as="alternateBounds" />
          </mxGeometry>
        </mxCell>
        <mxCell id="z-KsflchiQsLVIYyh2aT-77" value="ID" style="shape=partialRectangle;connectable=0;fillColor=none;top=0;left=0;bottom=0;right=0;align=left;spacingLeft=6;fontStyle=5;overflow=hidden;whiteSpace=wrap;html=1;" vertex="1" parent="z-KsflchiQsLVIYyh2aT-75">
          <mxGeometry x="30" width="150" height="26" as="geometry">
            <mxRectangle width="150" height="26" as="alternateBounds" />
          </mxGeometry>
        </mxCell>
        <mxCell id="z-KsflchiQsLVIYyh2aT-78" value="" style="shape=tableRow;horizontal=0;startSize=0;swimlaneHead=0;swimlaneBody=0;fillColor=none;collapsible=0;dropTarget=0;points=[[0,0.5],[1,0.5]];portConstraint=eastwest;top=0;left=0;right=0;bottom=0;" vertex="1" parent="z-KsflchiQsLVIYyh2aT-74">
          <mxGeometry y="57" width="180" height="30" as="geometry" />
        </mxCell>
        <mxCell id="z-KsflchiQsLVIYyh2aT-79" value="&lt;b&gt;FK&lt;/b&gt;" style="shape=partialRectangle;connectable=0;fillColor=none;top=0;left=0;bottom=0;right=0;editable=1;overflow=hidden;whiteSpace=wrap;html=1;" vertex="1" parent="z-KsflchiQsLVIYyh2aT-78">
          <mxGeometry width="30" height="30" as="geometry">
            <mxRectangle width="30" height="30" as="alternateBounds" />
          </mxGeometry>
        </mxCell>
        <mxCell id="z-KsflchiQsLVIYyh2aT-80" value="year_id" style="shape=partialRectangle;connectable=0;fillColor=none;top=0;left=0;bottom=0;right=0;align=left;spacingLeft=6;overflow=hidden;whiteSpace=wrap;html=1;" vertex="1" parent="z-KsflchiQsLVIYyh2aT-78">
          <mxGeometry x="30" width="150" height="30" as="geometry">
            <mxRectangle width="150" height="30" as="alternateBounds" />
          </mxGeometry>
        </mxCell>
        <mxCell id="z-KsflchiQsLVIYyh2aT-81" value="" style="shape=tableRow;horizontal=0;startSize=0;swimlaneHead=0;swimlaneBody=0;fillColor=none;collapsible=0;dropTarget=0;points=[[0,0.5],[1,0.5]];portConstraint=eastwest;top=0;left=0;right=0;bottom=0;" vertex="1" parent="z-KsflchiQsLVIYyh2aT-74">
          <mxGeometry y="87" width="180" height="30" as="geometry" />
        </mxCell>
        <mxCell id="z-KsflchiQsLVIYyh2aT-82" value="" style="shape=partialRectangle;connectable=0;fillColor=none;top=0;left=0;bottom=0;right=0;editable=1;overflow=hidden;whiteSpace=wrap;html=1;" vertex="1" parent="z-KsflchiQsLVIYyh2aT-81">
          <mxGeometry width="30" height="30" as="geometry">
            <mxRectangle width="30" height="30" as="alternateBounds" />
          </mxGeometry>
        </mxCell>
        <mxCell id="z-KsflchiQsLVIYyh2aT-83" value="name" style="shape=partialRectangle;connectable=0;fillColor=none;top=0;left=0;bottom=0;right=0;align=left;spacingLeft=6;overflow=hidden;whiteSpace=wrap;html=1;" vertex="1" parent="z-KsflchiQsLVIYyh2aT-81">
          <mxGeometry x="30" width="150" height="30" as="geometry">
            <mxRectangle width="150" height="30" as="alternateBounds" />
          </mxGeometry>
        </mxCell>
        <mxCell id="z-KsflchiQsLVIYyh2aT-84" value="" style="shape=tableRow;horizontal=0;startSize=0;swimlaneHead=0;swimlaneBody=0;fillColor=none;collapsible=0;dropTarget=0;points=[[0,0.5],[1,0.5]];portConstraint=eastwest;top=0;left=0;right=0;bottom=0;" vertex="1" parent="z-KsflchiQsLVIYyh2aT-74">
          <mxGeometry y="117" width="180" height="30" as="geometry" />
        </mxCell>
        <mxCell id="z-KsflchiQsLVIYyh2aT-85" value="" style="shape=partialRectangle;connectable=0;fillColor=none;top=0;left=0;bottom=0;right=0;editable=1;overflow=hidden;whiteSpace=wrap;html=1;" vertex="1" parent="z-KsflchiQsLVIYyh2aT-84">
          <mxGeometry width="30" height="30" as="geometry">
            <mxRectangle width="30" height="30" as="alternateBounds" />
          </mxGeometry>
        </mxCell>
        <mxCell id="z-KsflchiQsLVIYyh2aT-86" value="start_time" style="shape=partialRectangle;connectable=0;fillColor=none;top=0;left=0;bottom=0;right=0;align=left;spacingLeft=6;overflow=hidden;whiteSpace=wrap;html=1;" vertex="1" parent="z-KsflchiQsLVIYyh2aT-84">
          <mxGeometry x="30" width="150" height="30" as="geometry">
            <mxRectangle width="150" height="30" as="alternateBounds" />
          </mxGeometry>
        </mxCell>
        <mxCell id="z-KsflchiQsLVIYyh2aT-87" style="shape=tableRow;horizontal=0;startSize=0;swimlaneHead=0;swimlaneBody=0;fillColor=none;collapsible=0;dropTarget=0;points=[[0,0.5],[1,0.5]];portConstraint=eastwest;top=0;left=0;right=0;bottom=0;" vertex="1" parent="z-KsflchiQsLVIYyh2aT-74">
          <mxGeometry y="147" width="180" height="30" as="geometry" />
        </mxCell>
        <mxCell id="z-KsflchiQsLVIYyh2aT-88" style="shape=partialRectangle;connectable=0;fillColor=none;top=0;left=0;bottom=0;right=0;editable=1;overflow=hidden;whiteSpace=wrap;html=1;" vertex="1" parent="z-KsflchiQsLVIYyh2aT-87">
          <mxGeometry width="30" height="30" as="geometry">
            <mxRectangle width="30" height="30" as="alternateBounds" />
          </mxGeometry>
        </mxCell>
        <mxCell id="z-KsflchiQsLVIYyh2aT-89" value="end_time" style="shape=partialRectangle;connectable=0;fillColor=none;top=0;left=0;bottom=0;right=0;align=left;spacingLeft=6;overflow=hidden;whiteSpace=wrap;html=1;" vertex="1" parent="z-KsflchiQsLVIYyh2aT-87">
          <mxGeometry x="30" width="150" height="30" as="geometry">
            <mxRectangle width="150" height="30" as="alternateBounds" />
          </mxGeometry>
        </mxCell>
        <mxCell id="z-KsflchiQsLVIYyh2aT-90" style="edgeStyle=orthogonalEdgeStyle;rounded=0;orthogonalLoop=1;jettySize=auto;html=1;entryX=1;entryY=0.5;entryDx=0;entryDy=0;" edge="1" parent="1" source="z-KsflchiQsLVIYyh2aT-4" target="z-KsflchiQsLVIYyh2aT-75">
          <mxGeometry relative="1" as="geometry" />
        </mxCell>
        <mxCell id="z-KsflchiQsLVIYyh2aT-91" style="edgeStyle=orthogonalEdgeStyle;rounded=0;orthogonalLoop=1;jettySize=auto;html=1;entryX=1;entryY=0.5;entryDx=0;entryDy=0;" edge="1" parent="1" source="z-KsflchiQsLVIYyh2aT-1" target="z-KsflchiQsLVIYyh2aT-75">
          <mxGeometry relative="1" as="geometry" />
        </mxCell>
      </root>
    </mxGraphModel>
  </diagram>
</mxfile>
